<mxfile host="app.diagrams.net" agent="Mozilla/5.0 (Windows NT 10.0; Win64; x64) AppleWebKit/537.36 (KHTML, like Gecko) Chrome/127.0.0.0 Safari/537.36" version="24.7.6">
  <diagram name="Trang-1" id="sKtFXCQXD6JdzGNAWD8b">
    <mxGraphModel dx="977" dy="479" grid="1" gridSize="10" guides="1" tooltips="1" connect="1" arrows="1" fold="1" page="1" pageScale="1" pageWidth="827" pageHeight="1169" math="0" shadow="0">
      <root>
        <mxCell id="0" />
        <mxCell id="1" parent="0" />
        <mxCell id="bal98tz_xraKo0aiP8CR-1" value="Đăng ký Tour" style="ellipse;whiteSpace=wrap;html=1;" vertex="1" parent="1">
          <mxGeometry x="60" y="120" width="100" height="70" as="geometry" />
        </mxCell>
        <mxCell id="bal98tz_xraKo0aiP8CR-2" value="Thanh toán" style="ellipse;whiteSpace=wrap;html=1;" vertex="1" parent="1">
          <mxGeometry x="220" y="40" width="95" height="60" as="geometry" />
        </mxCell>
        <mxCell id="bal98tz_xraKo0aiP8CR-3" value="" style="ellipse;whiteSpace=wrap;html=1;aspect=fixed;" vertex="1" parent="1">
          <mxGeometry x="260" y="180" width="40" height="40" as="geometry" />
        </mxCell>
        <mxCell id="bal98tz_xraKo0aiP8CR-4" value="" style="endArrow=none;html=1;rounded=0;exitX=0.5;exitY=1;exitDx=0;exitDy=0;" edge="1" parent="1" source="bal98tz_xraKo0aiP8CR-3">
          <mxGeometry width="50" height="50" relative="1" as="geometry">
            <mxPoint x="390" y="110" as="sourcePoint" />
            <mxPoint x="280" y="300" as="targetPoint" />
          </mxGeometry>
        </mxCell>
        <mxCell id="bal98tz_xraKo0aiP8CR-5" value="" style="endArrow=none;html=1;rounded=0;" edge="1" parent="1">
          <mxGeometry width="50" height="50" relative="1" as="geometry">
            <mxPoint x="250" y="230" as="sourcePoint" />
            <mxPoint x="310" y="230" as="targetPoint" />
          </mxGeometry>
        </mxCell>
        <mxCell id="bal98tz_xraKo0aiP8CR-6" value="" style="endArrow=none;html=1;rounded=0;" edge="1" parent="1">
          <mxGeometry width="50" height="50" relative="1" as="geometry">
            <mxPoint x="280" y="270" as="sourcePoint" />
            <mxPoint x="310" y="300" as="targetPoint" />
          </mxGeometry>
        </mxCell>
        <mxCell id="bal98tz_xraKo0aiP8CR-7" value="" style="endArrow=none;html=1;rounded=0;" edge="1" parent="1">
          <mxGeometry width="50" height="50" relative="1" as="geometry">
            <mxPoint x="280" y="270" as="sourcePoint" />
            <mxPoint x="250" y="300" as="targetPoint" />
          </mxGeometry>
        </mxCell>
        <mxCell id="bal98tz_xraKo0aiP8CR-8" value="Xem thông tin Tour" style="ellipse;whiteSpace=wrap;html=1;" vertex="1" parent="1">
          <mxGeometry x="440" y="50" width="90" height="60" as="geometry" />
        </mxCell>
        <mxCell id="bal98tz_xraKo0aiP8CR-9" value="" style="ellipse;whiteSpace=wrap;html=1;aspect=fixed;" vertex="1" parent="1">
          <mxGeometry x="650" y="180" width="40" height="40" as="geometry" />
        </mxCell>
        <mxCell id="bal98tz_xraKo0aiP8CR-10" value="" style="endArrow=none;html=1;rounded=0;exitX=0.5;exitY=1;exitDx=0;exitDy=0;" edge="1" parent="1">
          <mxGeometry width="50" height="50" relative="1" as="geometry">
            <mxPoint x="669.71" y="220" as="sourcePoint" />
            <mxPoint x="669.71" y="300" as="targetPoint" />
          </mxGeometry>
        </mxCell>
        <mxCell id="bal98tz_xraKo0aiP8CR-11" value="" style="endArrow=none;html=1;rounded=0;" edge="1" parent="1">
          <mxGeometry width="50" height="50" relative="1" as="geometry">
            <mxPoint x="640" y="230" as="sourcePoint" />
            <mxPoint x="700" y="230" as="targetPoint" />
          </mxGeometry>
        </mxCell>
        <mxCell id="bal98tz_xraKo0aiP8CR-12" value="" style="endArrow=none;html=1;rounded=0;" edge="1" parent="1">
          <mxGeometry width="50" height="50" relative="1" as="geometry">
            <mxPoint x="670" y="270" as="sourcePoint" />
            <mxPoint x="700" y="300" as="targetPoint" />
          </mxGeometry>
        </mxCell>
        <mxCell id="bal98tz_xraKo0aiP8CR-13" value="" style="endArrow=none;html=1;rounded=0;" edge="1" parent="1">
          <mxGeometry width="50" height="50" relative="1" as="geometry">
            <mxPoint x="670" y="270" as="sourcePoint" />
            <mxPoint x="640" y="300" as="targetPoint" />
          </mxGeometry>
        </mxCell>
        <mxCell id="bal98tz_xraKo0aiP8CR-14" value="Admin" style="text;html=1;align=center;verticalAlign=middle;resizable=0;points=[];autosize=1;strokeColor=none;fillColor=none;" vertex="1" parent="1">
          <mxGeometry x="640" y="310" width="60" height="30" as="geometry" />
        </mxCell>
        <mxCell id="bal98tz_xraKo0aiP8CR-15" value="User" style="text;html=1;align=center;verticalAlign=middle;resizable=0;points=[];autosize=1;strokeColor=none;fillColor=none;" vertex="1" parent="1">
          <mxGeometry x="255" y="308" width="50" height="30" as="geometry" />
        </mxCell>
        <mxCell id="bal98tz_xraKo0aiP8CR-17" value="Đăng nhập" style="ellipse;whiteSpace=wrap;html=1;" vertex="1" parent="1">
          <mxGeometry x="370" y="390" width="100" height="60" as="geometry" />
        </mxCell>
        <mxCell id="bal98tz_xraKo0aiP8CR-20" value="" style="ellipse;whiteSpace=wrap;html=1;aspect=fixed;" vertex="1" parent="1">
          <mxGeometry x="340" y="770" width="40" height="40" as="geometry" />
        </mxCell>
        <mxCell id="bal98tz_xraKo0aiP8CR-21" value="" style="endArrow=none;html=1;rounded=0;exitX=0.5;exitY=1;exitDx=0;exitDy=0;" edge="1" parent="1">
          <mxGeometry width="50" height="50" relative="1" as="geometry">
            <mxPoint x="359.71000000000004" y="810" as="sourcePoint" />
            <mxPoint x="359.71000000000004" y="890" as="targetPoint" />
          </mxGeometry>
        </mxCell>
        <mxCell id="bal98tz_xraKo0aiP8CR-22" value="" style="endArrow=none;html=1;rounded=0;" edge="1" parent="1">
          <mxGeometry width="50" height="50" relative="1" as="geometry">
            <mxPoint x="330" y="820" as="sourcePoint" />
            <mxPoint x="390" y="820" as="targetPoint" />
          </mxGeometry>
        </mxCell>
        <mxCell id="bal98tz_xraKo0aiP8CR-23" value="" style="endArrow=none;html=1;rounded=0;" edge="1" parent="1">
          <mxGeometry width="50" height="50" relative="1" as="geometry">
            <mxPoint x="360" y="860" as="sourcePoint" />
            <mxPoint x="390" y="890" as="targetPoint" />
          </mxGeometry>
        </mxCell>
        <mxCell id="bal98tz_xraKo0aiP8CR-24" value="" style="endArrow=none;html=1;rounded=0;" edge="1" parent="1">
          <mxGeometry width="50" height="50" relative="1" as="geometry">
            <mxPoint x="360" y="860" as="sourcePoint" />
            <mxPoint x="330" y="890" as="targetPoint" />
          </mxGeometry>
        </mxCell>
        <mxCell id="bal98tz_xraKo0aiP8CR-25" value="Employee" style="text;html=1;align=center;verticalAlign=middle;resizable=0;points=[];autosize=1;strokeColor=none;fillColor=none;" vertex="1" parent="1">
          <mxGeometry x="320" y="900" width="80" height="30" as="geometry" />
        </mxCell>
        <mxCell id="bal98tz_xraKo0aiP8CR-31" value="Quản lý thông tin&amp;nbsp;&lt;div&gt;nhân viên&lt;/div&gt;" style="ellipse;whiteSpace=wrap;html=1;" vertex="1" parent="1">
          <mxGeometry x="640" y="440" width="130" height="60" as="geometry" />
        </mxCell>
        <mxCell id="bal98tz_xraKo0aiP8CR-32" value="Cập nhật thông&amp;nbsp;&lt;div&gt;tin Tour&lt;/div&gt;" style="ellipse;whiteSpace=wrap;html=1;" vertex="1" parent="1">
          <mxGeometry x="660" y="585" width="130" height="60" as="geometry" />
        </mxCell>
        <mxCell id="bal98tz_xraKo0aiP8CR-33" value="Quản lý thông tin&amp;nbsp;&lt;div&gt;khách hàng&lt;/div&gt;" style="ellipse;whiteSpace=wrap;html=1;" vertex="1" parent="1">
          <mxGeometry x="480" y="640" width="130" height="60" as="geometry" />
        </mxCell>
        <mxCell id="bal98tz_xraKo0aiP8CR-34" value="Tạo phiếu đăng&lt;div&gt;&amp;nbsp;ký Tour&amp;nbsp;&lt;/div&gt;" style="ellipse;whiteSpace=wrap;html=1;" vertex="1" parent="1">
          <mxGeometry x="283" y="620" width="130" height="60" as="geometry" />
        </mxCell>
        <mxCell id="bal98tz_xraKo0aiP8CR-35" value="Chat với khách hàng" style="ellipse;whiteSpace=wrap;html=1;" vertex="1" parent="1">
          <mxGeometry x="20" y="584" width="130" height="60" as="geometry" />
        </mxCell>
        <mxCell id="bal98tz_xraKo0aiP8CR-36" value="" style="endArrow=classic;html=1;rounded=0;" edge="1" parent="1">
          <mxGeometry width="50" height="50" relative="1" as="geometry">
            <mxPoint x="310" y="200" as="sourcePoint" />
            <mxPoint x="450" y="110" as="targetPoint" />
          </mxGeometry>
        </mxCell>
        <mxCell id="bal98tz_xraKo0aiP8CR-37" value="" style="endArrow=classic;html=1;rounded=0;" edge="1" parent="1">
          <mxGeometry width="50" height="50" relative="1" as="geometry">
            <mxPoint x="280" y="170" as="sourcePoint" />
            <mxPoint x="280" y="110" as="targetPoint" />
          </mxGeometry>
        </mxCell>
        <mxCell id="bal98tz_xraKo0aiP8CR-38" value="" style="endArrow=classic;html=1;rounded=0;" edge="1" parent="1">
          <mxGeometry width="50" height="50" relative="1" as="geometry">
            <mxPoint x="250" y="200" as="sourcePoint" />
            <mxPoint x="170" y="170" as="targetPoint" />
          </mxGeometry>
        </mxCell>
        <mxCell id="bal98tz_xraKo0aiP8CR-39" value="" style="endArrow=classic;html=1;rounded=0;" edge="1" parent="1">
          <mxGeometry width="50" height="50" relative="1" as="geometry">
            <mxPoint x="660" y="170" as="sourcePoint" />
            <mxPoint x="540" y="110" as="targetPoint" />
          </mxGeometry>
        </mxCell>
        <mxCell id="bal98tz_xraKo0aiP8CR-40" value="" style="endArrow=classic;html=1;rounded=0;exitX=0.658;exitY=1.179;exitDx=0;exitDy=0;exitPerimeter=0;" edge="1" parent="1" source="bal98tz_xraKo0aiP8CR-14">
          <mxGeometry width="50" height="50" relative="1" as="geometry">
            <mxPoint x="330" y="220" as="sourcePoint" />
            <mxPoint x="700" y="430" as="targetPoint" />
          </mxGeometry>
        </mxCell>
        <mxCell id="bal98tz_xraKo0aiP8CR-41" value="" style="endArrow=classic;html=1;rounded=0;" edge="1" parent="1">
          <mxGeometry width="50" height="50" relative="1" as="geometry">
            <mxPoint x="490" y="130" as="sourcePoint" />
            <mxPoint x="440" y="380" as="targetPoint" />
          </mxGeometry>
        </mxCell>
        <mxCell id="bal98tz_xraKo0aiP8CR-42" value="" style="endArrow=classic;html=1;rounded=0;" edge="1" parent="1">
          <mxGeometry width="50" height="50" relative="1" as="geometry">
            <mxPoint x="630" y="450" as="sourcePoint" />
            <mxPoint x="490" y="420" as="targetPoint" />
          </mxGeometry>
        </mxCell>
        <mxCell id="bal98tz_xraKo0aiP8CR-43" value="" style="endArrow=classic;html=1;rounded=0;" edge="1" parent="1">
          <mxGeometry width="50" height="50" relative="1" as="geometry">
            <mxPoint x="670" y="580" as="sourcePoint" />
            <mxPoint x="480" y="440" as="targetPoint" />
          </mxGeometry>
        </mxCell>
        <mxCell id="bal98tz_xraKo0aiP8CR-44" value="" style="endArrow=classic;html=1;rounded=0;entryX=0.8;entryY=1;entryDx=0;entryDy=0;entryPerimeter=0;" edge="1" parent="1" target="bal98tz_xraKo0aiP8CR-17">
          <mxGeometry width="50" height="50" relative="1" as="geometry">
            <mxPoint x="540" y="620" as="sourcePoint" />
            <mxPoint x="490" y="450" as="targetPoint" />
          </mxGeometry>
        </mxCell>
        <mxCell id="bal98tz_xraKo0aiP8CR-45" value="" style="endArrow=classic;html=1;rounded=0;" edge="1" parent="1">
          <mxGeometry width="50" height="50" relative="1" as="geometry">
            <mxPoint x="370" y="610" as="sourcePoint" />
            <mxPoint x="410" y="460" as="targetPoint" />
          </mxGeometry>
        </mxCell>
        <mxCell id="bal98tz_xraKo0aiP8CR-46" value="" style="endArrow=classic;html=1;rounded=0;" edge="1" parent="1">
          <mxGeometry width="50" height="50" relative="1" as="geometry">
            <mxPoint x="110" y="580" as="sourcePoint" />
            <mxPoint x="360" y="440" as="targetPoint" />
          </mxGeometry>
        </mxCell>
        <mxCell id="bal98tz_xraKo0aiP8CR-47" value="" style="endArrow=classic;html=1;rounded=0;" edge="1" parent="1">
          <mxGeometry width="50" height="50" relative="1" as="geometry">
            <mxPoint x="320" y="790" as="sourcePoint" />
            <mxPoint x="110" y="660" as="targetPoint" />
          </mxGeometry>
        </mxCell>
        <mxCell id="bal98tz_xraKo0aiP8CR-48" value="" style="endArrow=classic;html=1;rounded=0;" edge="1" parent="1">
          <mxGeometry width="50" height="50" relative="1" as="geometry">
            <mxPoint x="350" y="760" as="sourcePoint" />
            <mxPoint x="350" y="690" as="targetPoint" />
          </mxGeometry>
        </mxCell>
        <mxCell id="bal98tz_xraKo0aiP8CR-49" value="" style="endArrow=classic;html=1;rounded=0;" edge="1" parent="1">
          <mxGeometry width="50" height="50" relative="1" as="geometry">
            <mxPoint x="380" y="760" as="sourcePoint" />
            <mxPoint x="490" y="710" as="targetPoint" />
          </mxGeometry>
        </mxCell>
        <mxCell id="bal98tz_xraKo0aiP8CR-50" value="" style="endArrow=classic;html=1;rounded=0;" edge="1" parent="1">
          <mxGeometry width="50" height="50" relative="1" as="geometry">
            <mxPoint x="390" y="800" as="sourcePoint" />
            <mxPoint x="720" y="660" as="targetPoint" />
          </mxGeometry>
        </mxCell>
      </root>
    </mxGraphModel>
  </diagram>
</mxfile>
